<?xml version="1.0" encoding="utf-8"?>
<svg width="64" height="64" viewBox="0 0 64 64" fill="none" xmlns="http://www.w3.org/2000/svg">
  <g clip-path="url(#clip0_5577_281808)">
    <path d="M32.1346 0.429507C14.6706 0.429507 0.464844 14.6359 0.464844 32.0953C0.464844 49.5619 14.6706 63.766 32.1346 63.766C49.5962 63.766 63.8017 49.5619 63.8017 32.0953C63.8017 14.6353 49.5959 0.428513 32.1346 0.428513" style="fill: rgb(0, 48, 135);"/>
    <path d="M32.1347 61.7992C15.7309 61.7992 2.43286 48.5032 2.43286 32.0964C2.43286 15.6976 15.7309 2.40156 32.1347 2.40156C48.5344 2.40156 61.8352 15.6976 61.8352 32.0964C61.8352 48.5032 48.5344 61.7992 32.1347 61.7992Z" style="fill: rgb(0, 48, 135);"/>
    <path d="M31.9395 5.84961C30.0391 5.84961 28.1859 6.05179 26.4003 6.43819V57.758C28.1856 58.1426 30.0388 58.3478 31.9395 58.3478C34.3939 58.3478 36.7711 58.0093 39.0238 57.376V49.1837C37.4535 49.8371 35.7796 50.2799 34.028 50.4748V36.887H38.1366V27.3123H34.028V15.695C35.7951 15.919 37.4755 16.4226 39.0238 17.161V6.82279C36.7727 6.19158 34.3957 5.85143 31.9398 5.85143L31.9395 5.84961ZM23.4926 7.24433C15.1929 10.0707 8.74674 16.9494 6.52588 25.5113L17.2875 37.5668V46.1221C15.2207 43.9638 13.6261 41.3481 12.666 38.444L7.59106 41.9018C10.4407 48.9483 16.2587 54.4897 23.4929 56.9516V34.607L14.0431 24.4305C15.1654 21.825 16.8395 19.507 18.9228 17.6316V23.8291H23.4929L23.4926 7.24433ZM42.0512 7.94623V56.3154C49.2688 53.2924 54.8587 47.133 57.111 39.5477L51.9214 35.636C51.3505 38.8644 50.0155 41.8342 48.1055 44.3435V19.9189C50.0155 22.4287 51.3505 25.3996 51.9214 28.6246L57.1097 24.711C54.8574 17.1278 49.2675 10.9661 42.0499 7.94325L42.0512 7.94623Z" fill="white"/>
  </g>
  <defs>
    <clipPath id="clip0_5577_281808">
      <rect width="64" height="64" fill="white"/>
    </clipPath>
  </defs>
</svg>