<svg width="60" height="56" viewBox="0 0 60 56" fill="none" xmlns="http://www.w3.org/2000/svg">
<mask id="mask0" mask-type="alpha" maskUnits="userSpaceOnUse" x="0" y="0" width="58" height="56">
<path fill-rule="evenodd" clip-rule="evenodd" d="M0 0.50177H57.3089V55.4982H0V0.50177Z" fill="white"/>
</mask>
<g mask="url(#mask0)">
<path fill-rule="evenodd" clip-rule="evenodd" d="M42.0147 28.3435L34.763 29.2272C38.3769 23.4465 40.3532 18.1014 46.1787 12.2392C44.5722 17.36 43.2642 23.1693 42.0147 28.3435ZM56.277 48.1552C51.3395 50.7046 47.6289 50.1706 47.2339 47.0924C46.7886 43.6501 47.0344 38.8063 47.1968 36.9599C47.2564 36.2836 47.4618 34.0989 47.5918 33.4389C49.2782 33.0867 51.5317 32.2631 51.5317 35.1944C52.3837 34.76 53.9461 33.4782 54.2145 32.1173C55.7016 25.0835 48.3306 26.9283 48.3306 26.9283C50.128 18.6191 52.0615 9.76986 56.1779 2.46779L52.0747 0.50177C49.2974 2.62712 46.4997 4.78016 44.1665 5.12784C42.036 5.64183 29.0126 6.66414 29.928 0.70225C28.4732 0.818581 27.6556 2.53044 27.664 4.00766C28.1342 10.4412 36.4958 9.16592 41.5873 9.79585C36.3324 16.3747 31.7148 23.187 27.5423 30.2405C24.235 30.8734 23.7994 26.7716 24.3627 25.6419C24.3627 25.6419 22.181 26.2543 21.3348 28.6433C20.3131 31.1542 21.4697 35.4007 25.0288 35.6371C21.5055 41.8363 17.2805 51.9918 8.636 49.9625C5.74303 49.366 2.36534 44.4679 4.11374 41.5555C5.18683 40.0637 3.59579 39.0169 1.77222 41.2293C-2.71418 46.1795 1.61341 56.0664 11.0122 55.4726C21.1164 55.6913 27.9349 43.1327 31.6145 35.6718L41.1959 34.1653L40.5897 41.9834C39.3818 61.4261 53.3755 53.9217 53.3755 53.9217C55.321 53.0385 57.3582 50.9099 57.3081 48.4301C57.2031 47.5946 56.7412 47.9184 56.277 48.1552V48.1552Z" fill="#FFFFFE"/>
</g>
<path fill-rule="evenodd" clip-rule="evenodd" d="M58.2522 54.5422C57.7081 54.5422 57.2709 54.1025 57.2709 53.5603C57.2709 53.0155 57.7081 52.5757 58.2522 52.5757C58.7971 52.5757 59.235 53.0155 59.235 53.5603C59.235 54.1025 58.7971 54.5422 58.2522 54.5422ZM58.2522 52.3074C57.5594 52.3074 57 52.8674 57 53.5603C57 54.2513 57.5594 54.8131 58.2522 54.8131C58.9457 54.8131 59.5057 54.2513 59.5057 53.5603C59.5057 52.8674 58.9457 52.3074 58.2522 52.3074V52.3074Z" fill="#FFFFFE"/>
<path fill-rule="evenodd" clip-rule="evenodd" d="M58.3439 53.4248H58.0053V53.1122H58.3439C58.4281 53.1122 58.5021 53.1812 58.5021 53.2699C58.5021 53.356 58.4281 53.4248 58.3439 53.4248ZM58.7678 53.2699C58.7678 53.0332 58.5754 52.844 58.3439 52.844H57.7402V54.2746H58.0053V53.6931H58.199L58.4716 54.2746H58.7678L58.4837 53.6691C58.6514 53.6116 58.7678 53.4533 58.7678 53.2699V53.2699Z" fill="#FFFFFE"/>
</svg>
