<?xml version="1.0" encoding="utf-8"?>
<svg version="1.1" width="200" height="200" xmlns="http://www.w3.org/2000/svg">
  <defs/>
  <path d="M0 0 C47.52 0 95.04 0 144 0 C144 13.86 144 27.72 144 42 C134.43 42 124.86 42 115 42 C115 37.05 115 32.1 115 27 C105.43 27 95.86 27 86 27 C86 58.68 86 90.36 86 123 C91.28 123 96.56 123 102 123 C102 132.57 102 142.14 102 152 C82.2 152 62.4 152 42 152 C42 142.43 42 132.86 42 123 C47.28 123 52.56 123 58 123 C58 91.32 58 59.64 58 27 C48.43 27 38.86 27 29 27 C29 31.95 29 36.9 29 42 C19.43 42 9.86 42 0 42 C0 28.14 0 14.28 0 0 Z M8 7 C8.99 7.495 8.99 7.495 10 8 C10 8.66 10 9.32 10 10 C10.66 10 11.32 10 12 10 C12 10.66 12 11.32 12 12 C26.90767613 12.11683801 41.81531675 12.20499033 56.72335339 12.25906086 C63.64555867 12.28483496 70.56747935 12.31996962 77.48950195 12.37719727 C84.16793551 12.4323847 90.84601212 12.46141066 97.524683 12.47438622 C100.07444225 12.48363471 102.62418506 12.5016946 105.17381859 12.52865028 C108.74148091 12.56487359 112.30791621 12.56994787 115.87573242 12.56762695 C116.93309097 12.58560333 117.99044952 12.60357971 119.07984924 12.62210083 C120.05435028 12.61522751 121.02885132 12.60835419 122.03288269 12.60127258 C123.29804356 12.60818603 123.29804356 12.60818603 124.58876324 12.61523914 C127.84865404 12.00190336 127.84865404 12.00190336 132 7 C91.08 7 50.16 7 8 7 Z M133.97265625 13.5625 C131.34665061 16.80730696 131.43312084 18.8660768 131.4375 23 C131.41558594 24.216875 131.39367187 25.43375 131.37109375 26.6875 C131.76025296 30.69741359 131.76025296 30.69741359 137 34 C137 26.74 137 19.48 137 12 C135.70541014 11.89825866 135.70541014 11.89825866 133.97265625 13.5625 Z M75 17 C75 55.28 75 93.56 75 133 C79.99627011 129.78987845 79.99627011 129.78987845 80.6292057 126.83230591 C80.6320334 125.65098587 80.6320334 125.65098587 80.63491821 124.44580078 C80.64901733 123.53735413 80.66311646 122.62890747 80.67764282 121.69293213 C80.66246109 120.20911041 80.66246109 120.20911041 80.64697266 118.6953125 C80.66011505 117.12399567 80.66011505 117.12399567 80.67352295 115.52093506 C80.6955454 112.05520313 80.680953 108.5907451 80.6640625 105.125 C80.66742978 102.71891026 80.67228167 100.31282219 80.67855835 97.90673828 C80.68593359 92.86279107 80.6752025 87.81928642 80.65185547 82.77539062 C80.62336818 76.30511246 80.63976854 69.83587121 80.66971779 63.3656311 C80.68777266 58.39681158 80.68204087 53.4282385 80.66907883 48.45941162 C80.66573985 46.07354612 80.66984907 43.68765835 80.68147659 41.30181885 C80.6941547 37.96883758 80.67484845 34.63754291 80.64697266 31.3046875 C80.65709381 30.31547302 80.66721497 29.32625854 80.67764282 28.30706787 C80.6635437 27.39862122 80.64944458 26.49017456 80.63491821 25.55419922 C80.63303308 24.76665253 80.63114796 23.97910583 80.6292057 23.16769409 C79.99627011 20.21012155 79.99627011 20.21012155 75 17 Z M91.9375 133.75 C89.56498458 136.0103053 89.56498458 136.0103053 90 140 C90.66 140 91.32 140 92 140 C92 140.66 92 141.32 92 142 C92.66 142 93.32 142 94 142 C94.33 142.66 94.66 143.32 95 144 C95 140.04 95 136.08 95 132 C93.67627058 131.89217043 93.67627058 131.89217043 91.9375 133.75 Z " transform="translate(29,25)" style="fill: rgb(255, 255, 255);"/>
  <path d="M0 0 C3.43879843 -0.13467879 6.8723564 -0.23395791 10.3125 -0.3125 C11.28896484 -0.35439453 12.26542969 -0.39628906 13.27148438 -0.43945312 C15.92685736 -0.48507809 18.38247074 -0.45101775 21 0 C22.9140625 1.984375 22.9140625 1.984375 24 5 C24.64740097 6.36034637 25.30593234 7.71542531 25.97265625 9.06640625 C26.67198523 10.56383949 27.3685412 12.0625705 28.0625 13.5625 C28.7613148 15.06399015 29.4605209 16.56529827 30.16015625 18.06640625 C30.46574463 18.72584229 30.77133301 19.38527832 31.08618164 20.06469727 C32.02776647 22.05880439 33.00670082 24.03121253 34 26 C34.32274902 25.31897217 34.64549805 24.63794434 34.97802734 23.9362793 C36.44127371 20.85220213 37.90809329 17.76983773 39.375 14.6875 C40.13683594 13.0797168 40.13683594 13.0797168 40.9140625 11.43945312 C41.40390625 10.41142578 41.89375 9.38339844 42.3984375 8.32421875 C42.84880371 7.37635498 43.29916992 6.42849121 43.76318359 5.4519043 C45 3 45 3 47 0 C49.24658203 -0.34057617 49.24658203 -0.34057617 52.0078125 -0.29296875 C52.99394531 -0.28330078 53.98007813 -0.27363281 54.99609375 -0.26367188 C56.02863281 -0.23853516 57.06117188 -0.21339844 58.125 -0.1875 C59.68541016 -0.16719727 59.68541016 -0.16719727 61.27734375 -0.14648438 C63.85178179 -0.11105633 66.42595474 -0.05724812 69 0 C69 4.62 69 9.24 69 14 C67.35 14 65.7 14 64 14 C64 26.54 64 39.08 64 52 C65.65 52 67.3 52 69 52 C69 56.62 69 61.24 69 66 C61.08 66 53.16 66 45 66 C45 61.38 45 56.76 45 52 C46.65 52 48.3 52 50 52 C49.505 41.605 49.505 41.605 49 31 C47.80375 33.3925 46.6075 35.785 45.375 38.25 C40.1875 48.625 40.1875 48.625 35 59 C32.33374412 56.62565569 30.9132826 54.18828771 29.3359375 51 C28.85382813 50.030625 28.37171875 49.06125 27.875 48.0625 C27.38 47.051875 26.885 46.04125 26.375 45 C25.87226563 43.989375 25.36953125 42.97875 24.8515625 41.9375 C21.15487637 34.46462912 21.15487637 34.46462912 20 31 C19.67 37.93 19.34 44.86 19 52 C20.65 52 22.3 52 24 52 C24 56.62 24 61.24 24 66 C15.75 66 7.5 66 -1 66 C-1 61.38 -1 56.76 -1 52 C0.65 52 2.3 52 4 52 C4 39.46 4 26.92 4 14 C2.68 14 1.36 14 0 14 C0 9.38 0 4.76 0 0 Z " transform="translate(124,75)" style="fill: rgb(255, 255, 255);"/>
  <path d="M0 0 C9.57 0 19.14 0 29 0 C29 4.62 29 9.24 29 14 C28.34 14 27.68 14 27 14 C29.89369985 21.02301811 32.81729554 28.03274044 35.76513672 35.03320312 C36.79050053 37.4966711 37.78224238 39.96821413 38.75390625 42.453125 C39.22699219 43.60296875 39.70007813 44.7528125 40.1875 45.9375 C40.57292969 46.91589844 40.95835938 47.89429688 41.35546875 48.90234375 C42.95351672 51.39755479 42.95351672 51.39755479 46.67578125 51.81640625 C47.77277344 51.87699219 48.86976562 51.93757813 50 52 C50 56.62 50 61.24 50 66 C41.42 66 32.84 66 24 66 C24 61.38 24 56.76 24 52 C24.66 51.67 25.32 51.34 26 51 C25.67 49.35 25.34 47.7 25 46 C18.4 46 11.8 46 5 46 C4.67 47.65 4.34 49.3 4 51 C4.66 51.33 5.32 51.66 6 52 C6 56.62 6 61.24 6 66 C-2.58 66 -11.16 66 -20 66 C-20 61.38 -20 56.76 -20 52 C-18.9171875 51.99226563 -17.834375 51.98453125 -16.71875 51.9765625 C-12.71118983 51.38756178 -12.71118983 51.38756178 -11.03125 47.7109375 C-10.4934193 46.27560077 -9.98456978 44.82918208 -9.5 43.375 C-8.92661577 41.82424506 -8.34971312 40.27478708 -7.76953125 38.7265625 C-7.48158691 37.93926758 -7.19364258 37.15197266 -6.89697266 36.34082031 C-5.5104731 32.7224867 -3.86402041 29.24128332 -2.1875 25.75 C-0.33613838 21.86934269 1.453708 18.01281631 3 14 C2.01 14 1.02 14 0 14 C0 9.38 0 4.76 0 0 Z M14 25 C13.34 27.31 12.68 29.62 12 32 C13.98 32 15.96 32 18 32 C17.34 29.69 16.68 27.38 16 25 C15.34 25 14.68 25 14 25 Z " transform="translate(29,75)" style="fill: rgb(255, 255, 255);"/>
</svg>